#!OML:ASF X:\für Bonn\!DataBase\2005_08_11_Bastian_Final\c3d\Bastian.ASF
:FULLY-SPECIFIED
:DEGREES
32
root 0.069814 17.547 2.23748 165.968 -3.10124 -174.624
lowerback 11.5966 -1.2058 3.14668
upperback 4.87991 -1.81678 1.93021
thorax -1.41947 -1.14408 0.466734
lowerneck 1.84729 -5.64726 -9.10524
upperneck 5.2797 -7.81541 9.21781
head 1.98289 -3.85672 4.1129
rclavicle -1.74092e-015 -1.07344e-014
rhumerus 75.2357 15.9621 -18.0685
rradius 42.0224
rwrist -57.1781
rhand -46.7685 -6.91401
rfingers 7.12502
rthumb -19.4847 -35.9577
lclavicle -1.74092e-015 -1.07344e-014
lhumerus 77.1298 -26.0773 7.16225
lradius 38.5111
lwrist 20.4249
lhand -50.5964 15.4007
lfingers 7.12502
lthumb -23.1614 44.0282
rfemur 6.12582 1.82031 28.2133
rtibia 28.795
rfoot -15.5628 -19.9654
rtoes 2.41619
lfemur 9.15031 0.60351 -13.6191
ltibia 22.5891
lfoot -10.2862 -4.2157
ltoes -12.8671
33
root 0.0705516 17.5446 2.20213 166.006 -2.98112 -174.644
lowerback 11.5369 -1.254 3.13198
upperback 4.58581 -1.83342 1.94515
thorax -1.69413 -1.13926 0.496859
lowerneck 2.58708 -5.51692 -9.20923
upperneck 5.40239 -7.67355 9.17252
head 1.88774 -3.79558 4.14265
rclavicle -1.10628e-014 4.17448e-015
rhumerus 75.9442 13.1275 -16.5342
rradius 41.5828
rwrist -56.8293
rhand -46.802 -6.44205
rfingers 7.12502
rthumb -19.5169 -35.4825
lclavicle -1.10628e-014 4.17448e-015
lhumerus 76.6246 -23.0301 5.63686
lradius 38.0056
lwrist 19.6973
lhand -51.0189 15.7991
lfingers 7.12502
lthumb -23.5667 44.3752
rfemur 6.21334 1.91151 28.2378
rtibia 28.8058
rfoot -15.6727 -19.9512
rtoes 2.35384
lfemur 9.2878 0.564804 -13.628
ltibia 22.5572
lfoot -10.4239 -4.11137
ltoes -12.4335
34
root 0.0719942 17.5422 2.16461 166.04 -2.82706 -174.679
lowerback 11.4942 -1.29273 3.10404
upperback 4.32349 -1.84527 1.94894
thorax -1.94451 -1.13398 0.522131
lowerneck 3.18073 -5.39077 -9.25444
upperneck 5.55936 -7.5276 9.08793
head 1.82272 -3.72813 4.14554
rclavicle -3.42585e-014 2.5842e-014
rhumerus 76.4713 10.2276 -14.5413
rradius 41.207
rwrist -56.4761
rhand -47.0707 -6.38672
rfingers 7.12502
rthumb -19.7752 -35.4008
lclavicle -3.42585e-014 2.5842e-014
lhumerus 76.2288 -19.9769 3.44386
lradius 37.6055
lwrist 19.6924
lhand -51.4972 16.8849
lfingers 7.12502
lthumb -24.0254 45.4012
rfemur 6.31591 2.01178 28.2499
rtibia 28.8197
rfoot -15.7883 -19.9125
rtoes 2.28691
lfemur 9.44969 0.568663 -13.6499
ltibia 22.5265
lfoot -10.5866 -3.99963
ltoes -12.3118
35
root 0.0726961 17.5396 2.12702 166.103 -2.70161 -174.703
lowerback 11.4604 -1.3373 3.09679
upperback 4.05833 -1.86363 1.95951
thorax -2.20296 -1.1325 0.54413
lowerneck 3.67281 -5.27124 -9.31692
upperneck 5.75494 -7.38672 9.04804
head 1.78852 -3.65964 4.16058
rclavicle 1.62895e-014 -1.2424e-014
rhumerus 76.6716 7.3203 -12.0912
rradius 40.9242
rwrist -56.2145
rhand -47.5336 -6.5382
rfingers 7.12502
rthumb -20.2202 -35.5058
lclavicle 1.62895e-014 -1.2424e-014
lhumerus 75.7317 -16.9951 0.821727
lradius 37.3708
lwrist 20.3007
lhand -52.0311 18.4132
lfingers 7.12502
lthumb -24.5373 46.861
rfemur 6.39621 2.14134 28.283
rtibia 28.8313
rfoot -15.9277 -19.9227
rtoes 2.27679
lfemur 9.57 0.584495 -13.6513
ltibia 22.4972
lfoot -10.7338 -3.95019
ltoes -12.149
36
root 0.0750824 17.538 2.08774 166.156 -2.5455 -174.701
lowerback 11.4165 -1.37083 3.07479
upperback 3.84844 -1.88026 2.01237
thorax -2.39611 -1.13379 0.616648
lowerneck 4.0244 -5.16714 -9.39957
upperneck 5.95022 -7.25978 8.95233
head 1.77742 -3.59819 4.15674
rclavicle -8.6316e-015 9.14409e-015
rhumerus 76.5781 4.28663 -9.03611
rradius 40.7707
rwrist -56.3331
rhand -48.2382 -6.83681
rfingers 7.12502
rthumb -20.8972 -35.7312
lclavicle -8.6316e-015 9.14409e-015
lhumerus 74.9833 -14.0418 -1.93963
lradius 37.238
lwrist 21.3249
lhand -52.5931 20.1502
lfingers 7.12502
lthumb -25.0759 48.5238
rfemur 6.48236 2.27784 28.354
rtibia 28.846
rfoot -16.053 -19.9284
rtoes 2.22235
lfemur 9.71181 0.627447 -13.6179
ltibia 22.4639
lfoot -10.8944 -3.86694
ltoes -12.2378
37
root 0.0768022 17.5348 2.0476 166.216 -2.40191 -174.732
lowerback 11.3635 -1.40912 3.03758
upperback 3.66436 -1.90901 2.03788
thorax -2.55795 -1.14131 0.670115
lowerneck 4.24 -5.06824 -9.44414
upperneck 6.19673 -7.13189 8.86503
head 1.80239 -3.53219 4.14458
rclavicle 5.96043e-015 -7.7526e-015
rhumerus 76.0346 1.28964 -5.73698
rradius 40.7235
rwrist -56.6338
rhand -49.1296 -7.21962
rfingers 7.12502
rthumb -21.7535 -36.0172
lclavicle 5.96043e-015 -7.7526e-015
lhumerus 73.9913 -11.2018 -4.91882
lradius 37.0613
lwrist 22.6745
lhand -53.2545 21.7774
lfingers 7.12502
lthumb -25.7096 50.061
rfemur 6.57707 2.38944 28.3758
rtibia 28.853
rfoot -16.1888 -19.9062
rtoes 2.18025
lfemur 9.84611 0.698604 -13.6099
ltibia 22.44
lfoot -11.0555 -3.81738
ltoes -12.1524
